# xmcd
#
# Track frame offsets:
#	150
#	13025
#	27194
#	41504
#	52712
#	66846
#	77818
#	97445
#	118554
#	137977
#	150488
#	163766
#	188267
#	200635
#	214009
#	270066
#
# Disc length: 3967 seconds
#
# Revision: 2
# Processed by: cddbd v1.5.2PL0 Copyright (c) Steve Scherf et al.
# Submitted via: audiograbber 1.83.01
#
DISCID=d00f7d10
DTITLE=Acoustic Fingers - Pigs In Chains
DYEAR=1997
DGENRE=Bluegrass
TTITLE0=Big Rock Candy Mountains
TTITLE1=Lonely Rider
TTITLE2=Will You Be Leavin'
TTITLE3=Puszta
TTITLE4=Everlasting Shining Piece Of Mine
TTITLE5=Let's Say Goodnight
TTITLE6=Sweet Release
TTITLE7=Turning Point
TTITLE8=Going Down This Road
TTITLE9=I Don't Know Why
TTITLE10=Ain't That Peculiar
TTITLE11=Lipstick Sunset
TTITLE12=Cakewalk
TTITLE13=Foggy Mt. Breakdown
TTITLE14=30 Days
TTITLE15=Uran im Urin
EXTD=YEAR: 1997
EXTT0=
EXTT1=
EXTT2=
EXTT3=
EXTT4=
EXTT5=
EXTT6=
EXTT7=
EXTT8=
EXTT9=
EXTT10=
EXTT11=
EXTT12=
EXTT13=
EXTT14=
EXTT15=
PLAYORDER=
